<?xml version="1.0" encoding="UTF-8" standalone="no"?>
<!DOCTYPE svg PUBLIC "-//W3C//DTD SVG 1.1//EN"
 "http://www.w3.org/Graphics/SVG/1.1/DTD/svg11.dtd">
<!-- Generated by graphviz version 2.43.0 (0)
 -->
<!-- Title: %3 Pages: 1 -->
<svg width="1160pt" height="128pt"
 viewBox="0.00 0.00 1160.00 128.00" xmlns="http://www.w3.org/2000/svg" xmlns:xlink="http://www.w3.org/1999/xlink">
<g id="graph0" class="graph" transform="scale(1 1) rotate(0) translate(4 124)">
<title>%3</title>
<polygon fill="white" stroke="transparent" points="-4,4 -4,-124 1156,-124 1156,4 -4,4"/>
<!-- 140106809588752 -->
<g id="node1" class="node">
<title>140106809588752</title>
<polygon fill="none" stroke="black" points="642,-82.5 642,-118.5 834,-118.5 834,-82.5 642,-82.5"/>
<text text-anchor="middle" x="652.5" y="-96.8" font-family="Times,serif" font-size="14.00">f</text>
<polyline fill="none" stroke="black" points="663,-82.5 663,-118.5 "/>
<text text-anchor="middle" x="705.5" y="-96.8" font-family="Times,serif" font-size="14.00">data &#45;2.0000</text>
<polyline fill="none" stroke="black" points="748,-82.5 748,-118.5 "/>
<text text-anchor="middle" x="791" y="-96.8" font-family="Times,serif" font-size="14.00">grad &#45;7.0000</text>
</g>
<!-- 140106809584272* -->
<g id="node3" class="node">
<title>140106809584272*</title>
<ellipse fill="none" stroke="black" cx="897" cy="-72.5" rx="27" ry="18"/>
<text text-anchor="middle" x="897" y="-68.8" font-family="Times,serif" font-size="14.00">*</text>
</g>
<!-- 140106809588752&#45;&gt;140106809584272* -->
<g id="edge9" class="edge">
<title>140106809588752&#45;&gt;140106809584272*</title>
<path fill="none" stroke="black" d="M834.4,-83.49C843.69,-81.83 852.64,-80.23 860.71,-78.79"/>
<polygon fill="black" stroke="black" points="861.53,-82.2 870.76,-77 860.31,-75.31 861.53,-82.2"/>
</g>
<!-- 140106809584272 -->
<g id="node2" class="node">
<title>140106809584272</title>
<polygon fill="none" stroke="black" points="960,-54.5 960,-90.5 1152,-90.5 1152,-54.5 960,-54.5"/>
<text text-anchor="middle" x="972.5" y="-68.8" font-family="Times,serif" font-size="14.00">L</text>
<polyline fill="none" stroke="black" points="985,-54.5 985,-90.5 "/>
<text text-anchor="middle" x="1027.5" y="-68.8" font-family="Times,serif" font-size="14.00">data &#45;8.0000</text>
<polyline fill="none" stroke="black" points="1070,-54.5 1070,-90.5 "/>
<text text-anchor="middle" x="1111" y="-68.8" font-family="Times,serif" font-size="14.00">grad 1.0000</text>
</g>
<!-- 140106809584272*&#45;&gt;140106809584272 -->
<g id="edge1" class="edge">
<title>140106809584272*&#45;&gt;140106809584272</title>
<path fill="none" stroke="black" d="M924.28,-72.5C931.78,-72.5 940.44,-72.5 949.67,-72.5"/>
<polygon fill="black" stroke="black" points="949.87,-76 959.87,-72.5 949.87,-69 949.87,-76"/>
</g>
<!-- 140106809082064 -->
<g id="node4" class="node">
<title>140106809082064</title>
<polygon fill="none" stroke="black" points="323,-55.5 323,-91.5 513,-91.5 513,-55.5 323,-55.5"/>
<text text-anchor="middle" x="334.5" y="-69.8" font-family="Times,serif" font-size="14.00">d</text>
<polyline fill="none" stroke="black" points="346,-55.5 346,-91.5 "/>
<text text-anchor="middle" x="388.5" y="-69.8" font-family="Times,serif" font-size="14.00">data &#45;6.0000</text>
<polyline fill="none" stroke="black" points="431,-55.5 431,-91.5 "/>
<text text-anchor="middle" x="472" y="-69.8" font-family="Times,serif" font-size="14.00">grad 0.0000</text>
</g>
<!-- 140106809473424+ -->
<g id="node9" class="node">
<title>140106809473424+</title>
<ellipse fill="none" stroke="black" cx="579" cy="-45.5" rx="27" ry="18"/>
<text text-anchor="middle" x="579" y="-41.8" font-family="Times,serif" font-size="14.00">+</text>
</g>
<!-- 140106809082064&#45;&gt;140106809473424+ -->
<g id="edge8" class="edge">
<title>140106809082064&#45;&gt;140106809473424+</title>
<path fill="none" stroke="black" d="M513.33,-56.89C523.71,-55.06 533.74,-53.29 542.68,-51.72"/>
<polygon fill="black" stroke="black" points="543.39,-55.15 552.63,-49.97 542.17,-48.26 543.39,-55.15"/>
</g>
<!-- 140106809082064* -->
<g id="node5" class="node">
<title>140106809082064*</title>
<ellipse fill="none" stroke="black" cx="257" cy="-73.5" rx="27" ry="18"/>
<text text-anchor="middle" x="257" y="-69.8" font-family="Times,serif" font-size="14.00">*</text>
</g>
<!-- 140106809082064*&#45;&gt;140106809082064 -->
<g id="edge2" class="edge">
<title>140106809082064*&#45;&gt;140106809082064</title>
<path fill="none" stroke="black" d="M284.26,-73.5C292.54,-73.5 302.26,-73.5 312.6,-73.5"/>
<polygon fill="black" stroke="black" points="312.69,-77 322.69,-73.5 312.69,-70 312.69,-77"/>
</g>
<!-- 140106809588688 -->
<g id="node6" class="node">
<title>140106809588688</title>
<polygon fill="none" stroke="black" points="320,-0.5 320,-36.5 516,-36.5 516,-0.5 320,-0.5"/>
<text text-anchor="middle" x="331.5" y="-14.8" font-family="Times,serif" font-size="14.00">c</text>
<polyline fill="none" stroke="black" points="343,-0.5 343,-36.5 "/>
<text text-anchor="middle" x="386.5" y="-14.8" font-family="Times,serif" font-size="14.00">data 10.0000</text>
<polyline fill="none" stroke="black" points="430,-0.5 430,-36.5 "/>
<text text-anchor="middle" x="473" y="-14.8" font-family="Times,serif" font-size="14.00">grad &#45;2.0000</text>
</g>
<!-- 140106809588688&#45;&gt;140106809473424+ -->
<g id="edge5" class="edge">
<title>140106809588688&#45;&gt;140106809473424+</title>
<path fill="none" stroke="black" d="M516.07,-34.98C525.42,-36.57 534.43,-38.1 542.55,-39.48"/>
<polygon fill="black" stroke="black" points="542.21,-42.97 552.65,-41.2 543.38,-36.07 542.21,-42.97"/>
</g>
<!-- 140106809584464 -->
<g id="node7" class="node">
<title>140106809584464</title>
<polygon fill="none" stroke="black" points="4.5,-83.5 4.5,-119.5 189.5,-119.5 189.5,-83.5 4.5,-83.5"/>
<text text-anchor="middle" x="16" y="-97.8" font-family="Times,serif" font-size="14.00">a</text>
<polyline fill="none" stroke="black" points="27.5,-83.5 27.5,-119.5 "/>
<text text-anchor="middle" x="67.5" y="-97.8" font-family="Times,serif" font-size="14.00">data 2.0000</text>
<polyline fill="none" stroke="black" points="107.5,-83.5 107.5,-119.5 "/>
<text text-anchor="middle" x="148.5" y="-97.8" font-family="Times,serif" font-size="14.00">grad 6.0000</text>
</g>
<!-- 140106809584464&#45;&gt;140106809082064* -->
<g id="edge7" class="edge">
<title>140106809584464&#45;&gt;140106809082064*</title>
<path fill="none" stroke="black" d="M189.91,-85.21C200.76,-83.29 211.28,-81.43 220.61,-79.77"/>
<polygon fill="black" stroke="black" points="221.37,-83.19 230.6,-78 220.15,-76.3 221.37,-83.19"/>
</g>
<!-- 140106809473424 -->
<g id="node8" class="node">
<title>140106809473424</title>
<polygon fill="none" stroke="black" points="645.5,-27.5 645.5,-63.5 830.5,-63.5 830.5,-27.5 645.5,-27.5"/>
<text text-anchor="middle" x="657" y="-41.8" font-family="Times,serif" font-size="14.00">e</text>
<polyline fill="none" stroke="black" points="668.5,-27.5 668.5,-63.5 "/>
<text text-anchor="middle" x="708.5" y="-41.8" font-family="Times,serif" font-size="14.00">data 4.0000</text>
<polyline fill="none" stroke="black" points="748.5,-27.5 748.5,-63.5 "/>
<text text-anchor="middle" x="789.5" y="-41.8" font-family="Times,serif" font-size="14.00">grad 0.0000</text>
</g>
<!-- 140106809473424&#45;&gt;140106809584272* -->
<g id="edge6" class="edge">
<title>140106809473424&#45;&gt;140106809584272*</title>
<path fill="none" stroke="black" d="M830.78,-61.28C841.3,-63.09 851.48,-64.84 860.56,-66.4"/>
<polygon fill="black" stroke="black" points="860.21,-69.9 870.65,-68.14 861.39,-63 860.21,-69.9"/>
</g>
<!-- 140106809473424+&#45;&gt;140106809473424 -->
<g id="edge3" class="edge">
<title>140106809473424+&#45;&gt;140106809473424</title>
<path fill="none" stroke="black" d="M606.28,-45.5C614.68,-45.5 624.54,-45.5 635.02,-45.5"/>
<polygon fill="black" stroke="black" points="635.22,-49 645.22,-45.5 635.22,-42 635.22,-49"/>
</g>
<!-- 140106809585104 -->
<g id="node10" class="node">
<title>140106809585104</title>
<polygon fill="none" stroke="black" points="0,-28.5 0,-64.5 194,-64.5 194,-28.5 0,-28.5"/>
<text text-anchor="middle" x="11.5" y="-42.8" font-family="Times,serif" font-size="14.00">b</text>
<polyline fill="none" stroke="black" points="23,-28.5 23,-64.5 "/>
<text text-anchor="middle" x="65.5" y="-42.8" font-family="Times,serif" font-size="14.00">data &#45;3.0000</text>
<polyline fill="none" stroke="black" points="108,-28.5 108,-64.5 "/>
<text text-anchor="middle" x="151" y="-42.8" font-family="Times,serif" font-size="14.00">grad &#45;4.0000</text>
</g>
<!-- 140106809585104&#45;&gt;140106809082064* -->
<g id="edge4" class="edge">
<title>140106809585104&#45;&gt;140106809082064*</title>
<path fill="none" stroke="black" d="M194.01,-62.91C203.35,-64.5 212.37,-66.04 220.49,-67.43"/>
<polygon fill="black" stroke="black" points="220.16,-70.93 230.6,-69.16 221.34,-64.03 220.16,-70.93"/>
</g>
</g>
</svg>