<?xml version="1.0" encoding="UTF-8" standalone="no"?>
<!DOCTYPE svg PUBLIC "-//W3C//DTD SVG 1.1//EN"
 "http://www.w3.org/Graphics/SVG/1.1/DTD/svg11.dtd">
<!-- Generated by graphviz version 2.43.0 (0)
 -->
<!-- Title: %3 Pages: 1 -->
<svg width="1148pt" height="128pt"
 viewBox="0.00 0.00 1148.00 128.00" xmlns="http://www.w3.org/2000/svg" xmlns:xlink="http://www.w3.org/1999/xlink">
<g id="graph0" class="graph" transform="scale(1 1) rotate(0) translate(4 124)">
<title>%3</title>
<polygon fill="white" stroke="transparent" points="-4,4 -4,-124 1144,-124 1144,4 -4,4"/>
<!-- 140106809588752 -->
<g id="node1" class="node">
<title>140106809588752</title>
<polygon fill="none" stroke="black" points="634,-82.5 634,-118.5 822,-118.5 822,-82.5 634,-82.5"/>
<text text-anchor="middle" x="644.5" y="-96.8" font-family="Times,serif" font-size="14.00">f</text>
<polyline fill="none" stroke="black" points="655,-82.5 655,-118.5 "/>
<text text-anchor="middle" x="697.5" y="-96.8" font-family="Times,serif" font-size="14.00">data &#45;2.0000</text>
<polyline fill="none" stroke="black" points="740,-82.5 740,-118.5 "/>
<text text-anchor="middle" x="781" y="-96.8" font-family="Times,serif" font-size="14.00">grad 0.0000</text>
</g>
<!-- 140106809584272* -->
<g id="node3" class="node">
<title>140106809584272*</title>
<ellipse fill="none" stroke="black" cx="885" cy="-72.5" rx="27" ry="18"/>
<text text-anchor="middle" x="885" y="-68.8" font-family="Times,serif" font-size="14.00">*</text>
</g>
<!-- 140106809588752&#45;&gt;140106809584272* -->
<g id="edge9" class="edge">
<title>140106809588752&#45;&gt;140106809584272*</title>
<path fill="none" stroke="black" d="M822.29,-83.65C831.57,-81.97 840.52,-80.35 848.61,-78.89"/>
<polygon fill="black" stroke="black" points="849.46,-82.3 858.68,-77.07 848.21,-75.41 849.46,-82.3"/>
</g>
<!-- 140106809584272 -->
<g id="node2" class="node">
<title>140106809584272</title>
<polygon fill="none" stroke="black" points="948,-54.5 948,-90.5 1140,-90.5 1140,-54.5 948,-54.5"/>
<text text-anchor="middle" x="960.5" y="-68.8" font-family="Times,serif" font-size="14.00">L</text>
<polyline fill="none" stroke="black" points="973,-54.5 973,-90.5 "/>
<text text-anchor="middle" x="1015.5" y="-68.8" font-family="Times,serif" font-size="14.00">data &#45;8.0000</text>
<polyline fill="none" stroke="black" points="1058,-54.5 1058,-90.5 "/>
<text text-anchor="middle" x="1099" y="-68.8" font-family="Times,serif" font-size="14.00">grad 0.0000</text>
</g>
<!-- 140106809584272*&#45;&gt;140106809584272 -->
<g id="edge1" class="edge">
<title>140106809584272*&#45;&gt;140106809584272</title>
<path fill="none" stroke="black" d="M912.28,-72.5C919.78,-72.5 928.44,-72.5 937.67,-72.5"/>
<polygon fill="black" stroke="black" points="937.87,-76 947.87,-72.5 937.87,-69 937.87,-76"/>
</g>
<!-- 140106809082064 -->
<g id="node4" class="node">
<title>140106809082064</title>
<polygon fill="none" stroke="black" points="317,-55.5 317,-91.5 507,-91.5 507,-55.5 317,-55.5"/>
<text text-anchor="middle" x="328.5" y="-69.8" font-family="Times,serif" font-size="14.00">d</text>
<polyline fill="none" stroke="black" points="340,-55.5 340,-91.5 "/>
<text text-anchor="middle" x="382.5" y="-69.8" font-family="Times,serif" font-size="14.00">data &#45;6.0000</text>
<polyline fill="none" stroke="black" points="425,-55.5 425,-91.5 "/>
<text text-anchor="middle" x="466" y="-69.8" font-family="Times,serif" font-size="14.00">grad 0.0000</text>
</g>
<!-- 140106809473424+ -->
<g id="node9" class="node">
<title>140106809473424+</title>
<ellipse fill="none" stroke="black" cx="571" cy="-45.5" rx="27" ry="18"/>
<text text-anchor="middle" x="571" y="-41.8" font-family="Times,serif" font-size="14.00">+</text>
</g>
<!-- 140106809082064&#45;&gt;140106809473424+ -->
<g id="edge8" class="edge">
<title>140106809082064&#45;&gt;140106809473424+</title>
<path fill="none" stroke="black" d="M507.05,-56.73C516.89,-54.97 526.39,-53.28 534.9,-51.76"/>
<polygon fill="black" stroke="black" points="535.52,-55.2 544.75,-50 534.29,-48.31 535.52,-55.2"/>
</g>
<!-- 140106809082064* -->
<g id="node5" class="node">
<title>140106809082064*</title>
<ellipse fill="none" stroke="black" cx="253" cy="-73.5" rx="27" ry="18"/>
<text text-anchor="middle" x="253" y="-69.8" font-family="Times,serif" font-size="14.00">*</text>
</g>
<!-- 140106809082064*&#45;&gt;140106809082064 -->
<g id="edge2" class="edge">
<title>140106809082064*&#45;&gt;140106809082064</title>
<path fill="none" stroke="black" d="M280.28,-73.5C288.05,-73.5 297.08,-73.5 306.68,-73.5"/>
<polygon fill="black" stroke="black" points="306.88,-77 316.88,-73.5 306.88,-70 306.88,-77"/>
</g>
<!-- 140106809588688 -->
<g id="node6" class="node">
<title>140106809588688</title>
<polygon fill="none" stroke="black" points="316,-0.5 316,-36.5 508,-36.5 508,-0.5 316,-0.5"/>
<text text-anchor="middle" x="327.5" y="-14.8" font-family="Times,serif" font-size="14.00">c</text>
<polyline fill="none" stroke="black" points="339,-0.5 339,-36.5 "/>
<text text-anchor="middle" x="382.5" y="-14.8" font-family="Times,serif" font-size="14.00">data 10.0000</text>
<polyline fill="none" stroke="black" points="426,-0.5 426,-36.5 "/>
<text text-anchor="middle" x="467" y="-14.8" font-family="Times,serif" font-size="14.00">grad 0.0000</text>
</g>
<!-- 140106809588688&#45;&gt;140106809473424+ -->
<g id="edge5" class="edge">
<title>140106809588688&#45;&gt;140106809473424+</title>
<path fill="none" stroke="black" d="M508.4,-34.91C517.69,-36.5 526.64,-38.04 534.71,-39.43"/>
<polygon fill="black" stroke="black" points="534.32,-42.91 544.76,-41.16 535.5,-36.02 534.32,-42.91"/>
</g>
<!-- 140106809584464 -->
<g id="node7" class="node">
<title>140106809584464</title>
<polygon fill="none" stroke="black" points="2.5,-83.5 2.5,-119.5 187.5,-119.5 187.5,-83.5 2.5,-83.5"/>
<text text-anchor="middle" x="14" y="-97.8" font-family="Times,serif" font-size="14.00">a</text>
<polyline fill="none" stroke="black" points="25.5,-83.5 25.5,-119.5 "/>
<text text-anchor="middle" x="65.5" y="-97.8" font-family="Times,serif" font-size="14.00">data 2.0000</text>
<polyline fill="none" stroke="black" points="105.5,-83.5 105.5,-119.5 "/>
<text text-anchor="middle" x="146.5" y="-97.8" font-family="Times,serif" font-size="14.00">grad 0.0000</text>
</g>
<!-- 140106809584464&#45;&gt;140106809082064* -->
<g id="edge7" class="edge">
<title>140106809584464&#45;&gt;140106809082064*</title>
<path fill="none" stroke="black" d="M187.65,-85.05C197.94,-83.2 207.91,-81.41 216.81,-79.82"/>
<polygon fill="black" stroke="black" points="217.48,-83.25 226.71,-78.04 216.25,-76.36 217.48,-83.25"/>
</g>
<!-- 140106809473424 -->
<g id="node8" class="node">
<title>140106809473424</title>
<polygon fill="none" stroke="black" points="635.5,-27.5 635.5,-63.5 820.5,-63.5 820.5,-27.5 635.5,-27.5"/>
<text text-anchor="middle" x="647" y="-41.8" font-family="Times,serif" font-size="14.00">e</text>
<polyline fill="none" stroke="black" points="658.5,-27.5 658.5,-63.5 "/>
<text text-anchor="middle" x="698.5" y="-41.8" font-family="Times,serif" font-size="14.00">data 4.0000</text>
<polyline fill="none" stroke="black" points="738.5,-27.5 738.5,-63.5 "/>
<text text-anchor="middle" x="779.5" y="-41.8" font-family="Times,serif" font-size="14.00">grad 0.0000</text>
</g>
<!-- 140106809473424&#45;&gt;140106809584272* -->
<g id="edge6" class="edge">
<title>140106809473424&#45;&gt;140106809584272*</title>
<path fill="none" stroke="black" d="M820.51,-61.44C830.48,-63.18 840.13,-64.86 848.77,-66.36"/>
<polygon fill="black" stroke="black" points="848.31,-69.84 858.77,-68.1 849.52,-62.94 848.31,-69.84"/>
</g>
<!-- 140106809473424+&#45;&gt;140106809473424 -->
<g id="edge3" class="edge">
<title>140106809473424+&#45;&gt;140106809473424</title>
<path fill="none" stroke="black" d="M598.29,-45.5C606.26,-45.5 615.54,-45.5 625.39,-45.5"/>
<polygon fill="black" stroke="black" points="625.41,-49 635.41,-45.5 625.41,-42 625.41,-49"/>
</g>
<!-- 140106809585104 -->
<g id="node10" class="node">
<title>140106809585104</title>
<polygon fill="none" stroke="black" points="0,-28.5 0,-64.5 190,-64.5 190,-28.5 0,-28.5"/>
<text text-anchor="middle" x="11.5" y="-42.8" font-family="Times,serif" font-size="14.00">b</text>
<polyline fill="none" stroke="black" points="23,-28.5 23,-64.5 "/>
<text text-anchor="middle" x="65.5" y="-42.8" font-family="Times,serif" font-size="14.00">data &#45;3.0000</text>
<polyline fill="none" stroke="black" points="108,-28.5 108,-64.5 "/>
<text text-anchor="middle" x="149" y="-42.8" font-family="Times,serif" font-size="14.00">grad 0.0000</text>
</g>
<!-- 140106809585104&#45;&gt;140106809082064* -->
<g id="edge4" class="edge">
<title>140106809585104&#45;&gt;140106809082064*</title>
<path fill="none" stroke="black" d="M190.34,-62.83C199.62,-64.44 208.58,-65.99 216.66,-67.38"/>
<polygon fill="black" stroke="black" points="216.27,-70.87 226.72,-69.12 217.46,-63.97 216.27,-70.87"/>
</g>
</g>
</svg>