<?xml version="1.0" encoding="UTF-8" standalone="no"?>
<!DOCTYPE svg PUBLIC "-//W3C//DTD SVG 1.1//EN"
 "http://www.w3.org/Graphics/SVG/1.1/DTD/svg11.dtd">
<!-- Generated by graphviz version 2.43.0 (0)
 -->
<!-- Title: %3 Pages: 1 -->
<svg width="2944pt" height="239pt"
 viewBox="0.00 0.00 2944.00 239.00" xmlns="http://www.w3.org/2000/svg" xmlns:xlink="http://www.w3.org/1999/xlink">
<g id="graph0" class="graph" transform="scale(1 1) rotate(0) translate(4 235)">
<title>%3</title>
<polygon fill="white" stroke="transparent" points="-4,4 -4,-235 2940,-235 2940,4 -4,4"/>
<!-- 140106808455184 -->
<g id="node1" class="node">
<title>140106808455184</title>
<polygon fill="none" stroke="black" points="2751,-54.5 2751,-90.5 2936,-90.5 2936,-54.5 2751,-54.5"/>
<text text-anchor="middle" x="2762.5" y="-68.8" font-family="Times,serif" font-size="14.00">o</text>
<polyline fill="none" stroke="black" points="2774,-54.5 2774,-90.5 "/>
<text text-anchor="middle" x="2814" y="-68.8" font-family="Times,serif" font-size="14.00">data 0.7071</text>
<polyline fill="none" stroke="black" points="2854,-54.5 2854,-90.5 "/>
<text text-anchor="middle" x="2895" y="-68.8" font-family="Times,serif" font-size="14.00">grad 1.0000</text>
</g>
<!-- 140106808455184* -->
<g id="node2" class="node">
<title>140106808455184*</title>
<ellipse fill="none" stroke="black" cx="2688" cy="-72.5" rx="27" ry="18"/>
<text text-anchor="middle" x="2688" y="-68.8" font-family="Times,serif" font-size="14.00">*</text>
</g>
<!-- 140106808455184*&#45;&gt;140106808455184 -->
<g id="edge1" class="edge">
<title>140106808455184*&#45;&gt;140106808455184</title>
<path fill="none" stroke="black" d="M2715.04,-72.5C2722.58,-72.5 2731.3,-72.5 2740.57,-72.5"/>
<polygon fill="black" stroke="black" points="2740.81,-76 2750.81,-72.5 2740.81,-69 2740.81,-76"/>
</g>
<!-- 140106808454672 -->
<g id="node3" class="node">
<title>140106808454672</title>
<polygon fill="none" stroke="black" points="2225,-27.5 2225,-63.5 2407,-63.5 2407,-27.5 2225,-27.5"/>
<text text-anchor="middle" x="2235" y="-41.8" font-family="Times,serif" font-size="14.00"> </text>
<polyline fill="none" stroke="black" points="2245,-27.5 2245,-63.5 "/>
<text text-anchor="middle" x="2285" y="-41.8" font-family="Times,serif" font-size="14.00">data 4.8284</text>
<polyline fill="none" stroke="black" points="2325,-27.5 2325,-63.5 "/>
<text text-anchor="middle" x="2366" y="-41.8" font-family="Times,serif" font-size="14.00">grad 0.1464</text>
</g>
<!-- 140106808454672&#45;&gt;140106808455184* -->
<g id="edge20" class="edge">
<title>140106808454672&#45;&gt;140106808455184*</title>
<path fill="none" stroke="black" d="M2407.04,-52.07C2485.41,-57.79 2594.98,-65.79 2650.96,-69.87"/>
<polygon fill="black" stroke="black" points="2650.87,-73.37 2661.1,-70.61 2651.38,-66.39 2650.87,-73.37"/>
</g>
<!-- 140106808454672+ -->
<g id="node4" class="node">
<title>140106808454672+</title>
<ellipse fill="none" stroke="black" cx="1940" cy="-45.5" rx="27" ry="18"/>
<text text-anchor="middle" x="1940" y="-41.8" font-family="Times,serif" font-size="14.00">+</text>
</g>
<!-- 140106808454672+&#45;&gt;140106808454672 -->
<g id="edge2" class="edge">
<title>140106808454672+&#45;&gt;140106808454672</title>
<path fill="none" stroke="black" d="M1967,-45.5C2017.46,-45.5 2131.06,-45.5 2214.81,-45.5"/>
<polygon fill="black" stroke="black" points="2214.87,-49 2224.87,-45.5 2214.87,-42 2214.87,-49"/>
</g>
<!-- 140106808454160 -->
<g id="node5" class="node">
<title>140106808454160</title>
<polygon fill="none" stroke="black" points="672,-111.5 672,-147.5 945,-147.5 945,-111.5 672,-111.5"/>
<text text-anchor="middle" x="725" y="-125.8" font-family="Times,serif" font-size="14.00">x1*w1 + x2*w2</text>
<polyline fill="none" stroke="black" points="778,-111.5 778,-147.5 "/>
<text text-anchor="middle" x="820.5" y="-125.8" font-family="Times,serif" font-size="14.00">data &#45;6.0000</text>
<polyline fill="none" stroke="black" points="863,-111.5 863,-147.5 "/>
<text text-anchor="middle" x="904" y="-125.8" font-family="Times,serif" font-size="14.00">grad 0.5000</text>
</g>
<!-- 140106808454224+ -->
<g id="node9" class="node">
<title>140106808454224+</title>
<ellipse fill="none" stroke="black" cx="1008" cy="-101.5" rx="27" ry="18"/>
<text text-anchor="middle" x="1008" y="-97.8" font-family="Times,serif" font-size="14.00">+</text>
</g>
<!-- 140106808454160&#45;&gt;140106808454224+ -->
<g id="edge25" class="edge">
<title>140106808454160&#45;&gt;140106808454224+</title>
<path fill="none" stroke="black" d="M936.53,-111.49C949.09,-109.71 960.99,-108.02 971.3,-106.56"/>
<polygon fill="black" stroke="black" points="972.03,-109.99 981.44,-105.12 971.05,-103.06 972.03,-109.99"/>
</g>
<!-- 140106808454160+ -->
<g id="node6" class="node">
<title>140106808454160+</title>
<ellipse fill="none" stroke="black" cx="609" cy="-129.5" rx="27" ry="18"/>
<text text-anchor="middle" x="609" y="-125.8" font-family="Times,serif" font-size="14.00">+</text>
</g>
<!-- 140106808454160+&#45;&gt;140106808454160 -->
<g id="edge3" class="edge">
<title>140106808454160+&#45;&gt;140106808454160</title>
<path fill="none" stroke="black" d="M636.23,-129.5C643.7,-129.5 652.41,-129.5 661.87,-129.5"/>
<polygon fill="black" stroke="black" points="661.98,-133 671.98,-129.5 661.98,-126 661.98,-133"/>
</g>
<!-- 140106808452560 -->
<g id="node7" class="node">
<title>140106808452560</title>
<polygon fill="none" stroke="black" points="2,-84.5 2,-120.5 198,-120.5 198,-84.5 2,-84.5"/>
<text text-anchor="middle" x="17" y="-98.8" font-family="Times,serif" font-size="14.00">x1</text>
<polyline fill="none" stroke="black" points="32,-84.5 32,-120.5 "/>
<text text-anchor="middle" x="72" y="-98.8" font-family="Times,serif" font-size="14.00">data 2.0000</text>
<polyline fill="none" stroke="black" points="112,-84.5 112,-120.5 "/>
<text text-anchor="middle" x="155" y="-98.8" font-family="Times,serif" font-size="14.00">grad &#45;1.5000</text>
</g>
<!-- 140106808446416* -->
<g id="node26" class="node">
<title>140106808446416*</title>
<ellipse fill="none" stroke="black" cx="263" cy="-102.5" rx="27" ry="18"/>
<text text-anchor="middle" x="263" y="-98.8" font-family="Times,serif" font-size="14.00">*</text>
</g>
<!-- 140106808452560&#45;&gt;140106808446416* -->
<g id="edge18" class="edge">
<title>140106808452560&#45;&gt;140106808446416*</title>
<path fill="none" stroke="black" d="M198.37,-102.5C208.05,-102.5 217.4,-102.5 225.8,-102.5"/>
<polygon fill="black" stroke="black" points="225.91,-106 235.91,-102.5 225.91,-99 225.91,-106"/>
</g>
<!-- 140106808454224 -->
<g id="node8" class="node">
<title>140106808454224</title>
<polygon fill="none" stroke="black" points="1071,-83.5 1071,-119.5 1256,-119.5 1256,-83.5 1071,-83.5"/>
<text text-anchor="middle" x="1082.5" y="-97.8" font-family="Times,serif" font-size="14.00">n</text>
<polyline fill="none" stroke="black" points="1094,-83.5 1094,-119.5 "/>
<text text-anchor="middle" x="1134" y="-97.8" font-family="Times,serif" font-size="14.00">data 0.8814</text>
<polyline fill="none" stroke="black" points="1174,-83.5 1174,-119.5 "/>
<text text-anchor="middle" x="1215" y="-97.8" font-family="Times,serif" font-size="14.00">grad 0.5000</text>
</g>
<!-- 140106808454288* -->
<g id="node15" class="node">
<title>140106808454288*</title>
<ellipse fill="none" stroke="black" cx="1319" cy="-73.5" rx="27" ry="18"/>
<text text-anchor="middle" x="1319" y="-69.8" font-family="Times,serif" font-size="14.00">*</text>
</g>
<!-- 140106808454224&#45;&gt;140106808454288* -->
<g id="edge28" class="edge">
<title>140106808454224&#45;&gt;140106808454288*</title>
<path fill="none" stroke="black" d="M1256.01,-84.81C1265.49,-83.08 1274.66,-81.41 1282.9,-79.9"/>
<polygon fill="black" stroke="black" points="1283.6,-83.33 1292.81,-78.09 1282.35,-76.45 1283.6,-83.33"/>
</g>
<!-- 140106808454224+&#45;&gt;140106808454224 -->
<g id="edge4" class="edge">
<title>140106808454224+&#45;&gt;140106808454224</title>
<path fill="none" stroke="black" d="M1035.04,-101.5C1042.58,-101.5 1051.3,-101.5 1060.57,-101.5"/>
<polygon fill="black" stroke="black" points="1060.81,-105 1070.81,-101.5 1060.81,-98 1060.81,-105"/>
</g>
<!-- 140106808454736 -->
<g id="node10" class="node">
<title>140106808454736</title>
<polygon fill="none" stroke="black" points="2003,-82.5 2003,-118.5 2189,-118.5 2189,-82.5 2003,-82.5"/>
<text text-anchor="middle" x="2013" y="-96.8" font-family="Times,serif" font-size="14.00"> </text>
<polyline fill="none" stroke="black" points="2023,-82.5 2023,-118.5 "/>
<text text-anchor="middle" x="2063" y="-96.8" font-family="Times,serif" font-size="14.00">data 6.8284</text>
<polyline fill="none" stroke="black" points="2103,-82.5 2103,-118.5 "/>
<text text-anchor="middle" x="2146" y="-96.8" font-family="Times,serif" font-size="14.00">grad &#45;0.1036</text>
</g>
<!-- 140106808454928**&#45;1 -->
<g id="node21" class="node">
<title>140106808454928**&#45;1</title>
<ellipse fill="none" stroke="black" cx="2316" cy="-100.5" rx="27" ry="18"/>
<text text-anchor="middle" x="2316" y="-96.8" font-family="Times,serif" font-size="14.00">**&#45;1</text>
</g>
<!-- 140106808454736&#45;&gt;140106808454928**&#45;1 -->
<g id="edge27" class="edge">
<title>140106808454736&#45;&gt;140106808454928**&#45;1</title>
<path fill="none" stroke="black" d="M2189.14,-100.5C2220.72,-100.5 2254.24,-100.5 2278.74,-100.5"/>
<polygon fill="black" stroke="black" points="2278.98,-104 2288.98,-100.5 2278.98,-97 2278.98,-104"/>
</g>
<!-- 140106808454736+ -->
<g id="node11" class="node">
<title>140106808454736+</title>
<ellipse fill="none" stroke="black" cx="1940" cy="-100.5" rx="27" ry="18"/>
<text text-anchor="middle" x="1940" y="-96.8" font-family="Times,serif" font-size="14.00">+</text>
</g>
<!-- 140106808454736+&#45;&gt;140106808454736 -->
<g id="edge5" class="edge">
<title>140106808454736+&#45;&gt;140106808454736</title>
<path fill="none" stroke="black" d="M1967.12,-100.5C1974.62,-100.5 1983.29,-100.5 1992.5,-100.5"/>
<polygon fill="black" stroke="black" points="1992.69,-104 2002.69,-100.5 1992.69,-97 1992.69,-104"/>
</g>
<!-- 140106808454096 -->
<g id="node12" class="node">
<title>140106808454096</title>
<polygon fill="none" stroke="black" points="328.5,-139.5 328.5,-175.5 543.5,-175.5 543.5,-139.5 328.5,-139.5"/>
<text text-anchor="middle" x="355" y="-153.8" font-family="Times,serif" font-size="14.00">x2*w2</text>
<polyline fill="none" stroke="black" points="381.5,-139.5 381.5,-175.5 "/>
<text text-anchor="middle" x="421.5" y="-153.8" font-family="Times,serif" font-size="14.00">data 0.0000</text>
<polyline fill="none" stroke="black" points="461.5,-139.5 461.5,-175.5 "/>
<text text-anchor="middle" x="502.5" y="-153.8" font-family="Times,serif" font-size="14.00">grad 0.5000</text>
</g>
<!-- 140106808454096&#45;&gt;140106808454160+ -->
<g id="edge22" class="edge">
<title>140106808454096&#45;&gt;140106808454160+</title>
<path fill="none" stroke="black" d="M543.84,-140.01C554.01,-138.34 563.76,-136.74 572.44,-135.32"/>
<polygon fill="black" stroke="black" points="573.17,-138.75 582.47,-133.68 572.04,-131.84 573.17,-138.75"/>
</g>
<!-- 140106808454096* -->
<g id="node13" class="node">
<title>140106808454096*</title>
<ellipse fill="none" stroke="black" cx="263" cy="-157.5" rx="27" ry="18"/>
<text text-anchor="middle" x="263" y="-153.8" font-family="Times,serif" font-size="14.00">*</text>
</g>
<!-- 140106808454096*&#45;&gt;140106808454096 -->
<g id="edge6" class="edge">
<title>140106808454096*&#45;&gt;140106808454096</title>
<path fill="none" stroke="black" d="M290.34,-157.5C298.51,-157.5 308.08,-157.5 318.36,-157.5"/>
<polygon fill="black" stroke="black" points="318.39,-161 328.39,-157.5 318.39,-154 318.39,-161"/>
</g>
<!-- 140106808454288 -->
<g id="node14" class="node">
<title>140106808454288</title>
<polygon fill="none" stroke="black" points="1382,-55.5 1382,-91.5 1564,-91.5 1564,-55.5 1382,-55.5"/>
<text text-anchor="middle" x="1392" y="-69.8" font-family="Times,serif" font-size="14.00"> </text>
<polyline fill="none" stroke="black" points="1402,-55.5 1402,-91.5 "/>
<text text-anchor="middle" x="1442" y="-69.8" font-family="Times,serif" font-size="14.00">data 1.7627</text>
<polyline fill="none" stroke="black" points="1482,-55.5 1482,-91.5 "/>
<text text-anchor="middle" x="1523" y="-69.8" font-family="Times,serif" font-size="14.00">grad 0.2500</text>
</g>
<!-- 140106808454480exp -->
<g id="node23" class="node">
<title>140106808454480exp</title>
<ellipse fill="none" stroke="black" cx="1627" cy="-73.5" rx="27" ry="18"/>
<text text-anchor="middle" x="1627" y="-69.8" font-family="Times,serif" font-size="14.00">exp</text>
</g>
<!-- 140106808454288&#45;&gt;140106808454480exp -->
<g id="edge12" class="edge">
<title>140106808454288&#45;&gt;140106808454480exp</title>
<path fill="none" stroke="black" d="M1564.18,-73.5C1573.14,-73.5 1581.83,-73.5 1589.73,-73.5"/>
<polygon fill="black" stroke="black" points="1589.96,-77 1599.96,-73.5 1589.96,-70 1589.96,-77"/>
</g>
<!-- 140106808454288*&#45;&gt;140106808454288 -->
<g id="edge7" class="edge">
<title>140106808454288*&#45;&gt;140106808454288</title>
<path fill="none" stroke="black" d="M1346.13,-73.5C1353.67,-73.5 1362.39,-73.5 1371.64,-73.5"/>
<polygon fill="black" stroke="black" points="1371.87,-77 1381.87,-73.5 1371.87,-70 1371.87,-77"/>
</g>
<!-- 140106808454800 -->
<g id="node16" class="node">
<title>140106808454800</title>
<polygon fill="none" stroke="black" points="1690.5,-110.5 1690.5,-146.5 1876.5,-146.5 1876.5,-110.5 1690.5,-110.5"/>
<text text-anchor="middle" x="1700.5" y="-124.8" font-family="Times,serif" font-size="14.00"> </text>
<polyline fill="none" stroke="black" points="1710.5,-110.5 1710.5,-146.5 "/>
<text text-anchor="middle" x="1750.5" y="-124.8" font-family="Times,serif" font-size="14.00">data 1.0000</text>
<polyline fill="none" stroke="black" points="1790.5,-110.5 1790.5,-146.5 "/>
<text text-anchor="middle" x="1833.5" y="-124.8" font-family="Times,serif" font-size="14.00">grad &#45;0.1036</text>
</g>
<!-- 140106808454800&#45;&gt;140106808454736+ -->
<g id="edge21" class="edge">
<title>140106808454800&#45;&gt;140106808454736+</title>
<path fill="none" stroke="black" d="M1876.6,-111.81C1886.15,-110.08 1895.37,-108.41 1903.68,-106.9"/>
<polygon fill="black" stroke="black" points="1904.43,-110.32 1913.65,-105.09 1903.18,-103.43 1904.43,-110.32"/>
</g>
<!-- 140106808454352 -->
<g id="node17" class="node">
<title>140106808454352</title>
<polygon fill="none" stroke="black" points="1072.5,-28.5 1072.5,-64.5 1254.5,-64.5 1254.5,-28.5 1072.5,-28.5"/>
<text text-anchor="middle" x="1082.5" y="-42.8" font-family="Times,serif" font-size="14.00"> </text>
<polyline fill="none" stroke="black" points="1092.5,-28.5 1092.5,-64.5 "/>
<text text-anchor="middle" x="1132.5" y="-42.8" font-family="Times,serif" font-size="14.00">data 2.0000</text>
<polyline fill="none" stroke="black" points="1172.5,-28.5 1172.5,-64.5 "/>
<text text-anchor="middle" x="1213.5" y="-42.8" font-family="Times,serif" font-size="14.00">grad 0.2203</text>
</g>
<!-- 140106808454352&#45;&gt;140106808454288* -->
<g id="edge14" class="edge">
<title>140106808454352&#45;&gt;140106808454288*</title>
<path fill="none" stroke="black" d="M1254.68,-62.36C1264.61,-64.11 1274.23,-65.8 1282.84,-67.32"/>
<polygon fill="black" stroke="black" points="1282.36,-70.78 1292.81,-69.07 1283.57,-63.89 1282.36,-70.78"/>
</g>
<!-- 140106808453392 -->
<g id="node18" class="node">
<title>140106808453392</title>
<polygon fill="none" stroke="black" points="0,-29.5 0,-65.5 200,-65.5 200,-29.5 0,-29.5"/>
<text text-anchor="middle" x="16.5" y="-43.8" font-family="Times,serif" font-size="14.00">w1</text>
<polyline fill="none" stroke="black" points="33,-29.5 33,-65.5 "/>
<text text-anchor="middle" x="75.5" y="-43.8" font-family="Times,serif" font-size="14.00">data &#45;3.0000</text>
<polyline fill="none" stroke="black" points="118,-29.5 118,-65.5 "/>
<text text-anchor="middle" x="159" y="-43.8" font-family="Times,serif" font-size="14.00">grad 1.0000</text>
</g>
<!-- 140106808453392&#45;&gt;140106808446416* -->
<g id="edge16" class="edge">
<title>140106808453392&#45;&gt;140106808446416*</title>
<path fill="none" stroke="black" d="M172.53,-65.56C181.84,-68.33 191.2,-71.33 200,-74.5 210.53,-78.29 221.75,-83.1 231.72,-87.67"/>
<polygon fill="black" stroke="black" points="230.28,-90.86 240.82,-91.93 233.25,-84.52 230.28,-90.86"/>
</g>
<!-- 140106808453904 -->
<g id="node19" class="node">
<title>140106808453904</title>
<polygon fill="none" stroke="black" points="4,-194.5 4,-230.5 196,-230.5 196,-194.5 4,-194.5"/>
<text text-anchor="middle" x="19" y="-208.8" font-family="Times,serif" font-size="14.00">x2</text>
<polyline fill="none" stroke="black" points="34,-194.5 34,-230.5 "/>
<text text-anchor="middle" x="74" y="-208.8" font-family="Times,serif" font-size="14.00">data 0.0000</text>
<polyline fill="none" stroke="black" points="114,-194.5 114,-230.5 "/>
<text text-anchor="middle" x="155" y="-208.8" font-family="Times,serif" font-size="14.00">grad 0.5000</text>
</g>
<!-- 140106808453904&#45;&gt;140106808454096* -->
<g id="edge17" class="edge">
<title>140106808453904&#45;&gt;140106808454096*</title>
<path fill="none" stroke="black" d="M169.28,-194.5C179.65,-191.39 190.16,-188.02 200,-184.5 210.28,-180.83 221.28,-176.26 231.11,-171.93"/>
<polygon fill="black" stroke="black" points="232.79,-175.01 240.48,-167.73 229.93,-168.63 232.79,-175.01"/>
</g>
<!-- 140106808454928 -->
<g id="node20" class="node">
<title>140106808454928</title>
<polygon fill="none" stroke="black" points="2443,-80.5 2443,-116.5 2625,-116.5 2625,-80.5 2443,-80.5"/>
<text text-anchor="middle" x="2453" y="-94.8" font-family="Times,serif" font-size="14.00"> </text>
<polyline fill="none" stroke="black" points="2463,-80.5 2463,-116.5 "/>
<text text-anchor="middle" x="2503" y="-94.8" font-family="Times,serif" font-size="14.00">data 0.1464</text>
<polyline fill="none" stroke="black" points="2543,-80.5 2543,-116.5 "/>
<text text-anchor="middle" x="2584" y="-94.8" font-family="Times,serif" font-size="14.00">grad 4.8284</text>
</g>
<!-- 140106808454928&#45;&gt;140106808455184* -->
<g id="edge11" class="edge">
<title>140106808454928&#45;&gt;140106808455184*</title>
<path fill="none" stroke="black" d="M2625.18,-83.08C2634.42,-81.49 2643.38,-79.96 2651.47,-78.58"/>
<polygon fill="black" stroke="black" points="2652.29,-81.99 2661.56,-76.85 2651.11,-75.09 2652.29,-81.99"/>
</g>
<!-- 140106808454928**&#45;1&#45;&gt;140106808454928 -->
<g id="edge8" class="edge">
<title>140106808454928**&#45;1&#45;&gt;140106808454928</title>
<path fill="none" stroke="black" d="M2343.05,-100.26C2365.53,-100.05 2399.48,-99.74 2432.5,-99.43"/>
<polygon fill="black" stroke="black" points="2432.74,-102.93 2442.7,-99.34 2432.67,-95.93 2432.74,-102.93"/>
</g>
<!-- 140106808454480 -->
<g id="node22" class="node">
<title>140106808454480</title>
<polygon fill="none" stroke="black" points="1692.5,-55.5 1692.5,-91.5 1874.5,-91.5 1874.5,-55.5 1692.5,-55.5"/>
<text text-anchor="middle" x="1702.5" y="-69.8" font-family="Times,serif" font-size="14.00"> </text>
<polyline fill="none" stroke="black" points="1712.5,-55.5 1712.5,-91.5 "/>
<text text-anchor="middle" x="1752.5" y="-69.8" font-family="Times,serif" font-size="14.00">data 5.8284</text>
<polyline fill="none" stroke="black" points="1792.5,-55.5 1792.5,-91.5 "/>
<text text-anchor="middle" x="1833.5" y="-69.8" font-family="Times,serif" font-size="14.00">grad 0.0429</text>
</g>
<!-- 140106808454480&#45;&gt;140106808454672+ -->
<g id="edge19" class="edge">
<title>140106808454480&#45;&gt;140106808454672+</title>
<path fill="none" stroke="black" d="M1874.82,-57.13C1885.07,-55.27 1895.01,-53.47 1903.88,-51.87"/>
<polygon fill="black" stroke="black" points="1904.54,-55.3 1913.75,-50.08 1903.29,-48.42 1904.54,-55.3"/>
</g>
<!-- 140106808454480&#45;&gt;140106808454736+ -->
<g id="edge15" class="edge">
<title>140106808454480&#45;&gt;140106808454736+</title>
<path fill="none" stroke="black" d="M1874.82,-89.28C1885.07,-91.08 1895.01,-92.81 1903.88,-94.36"/>
<polygon fill="black" stroke="black" points="1903.3,-97.81 1913.75,-96.09 1904.5,-90.92 1903.3,-97.81"/>
</g>
<!-- 140106808454480exp&#45;&gt;140106808454480 -->
<g id="edge9" class="edge">
<title>140106808454480exp&#45;&gt;140106808454480</title>
<path fill="none" stroke="black" d="M1654.21,-73.5C1662.34,-73.5 1671.85,-73.5 1681.94,-73.5"/>
<polygon fill="black" stroke="black" points="1682.19,-77 1692.19,-73.5 1682.19,-70 1682.19,-77"/>
</g>
<!-- 140106808453968 -->
<g id="node24" class="node">
<title>140106808453968</title>
<polygon fill="none" stroke="black" points="2.5,-139.5 2.5,-175.5 197.5,-175.5 197.5,-139.5 2.5,-139.5"/>
<text text-anchor="middle" x="19" y="-153.8" font-family="Times,serif" font-size="14.00">w2</text>
<polyline fill="none" stroke="black" points="35.5,-139.5 35.5,-175.5 "/>
<text text-anchor="middle" x="75.5" y="-153.8" font-family="Times,serif" font-size="14.00">data 1.0000</text>
<polyline fill="none" stroke="black" points="115.5,-139.5 115.5,-175.5 "/>
<text text-anchor="middle" x="156.5" y="-153.8" font-family="Times,serif" font-size="14.00">grad 0.0000</text>
</g>
<!-- 140106808453968&#45;&gt;140106808454096* -->
<g id="edge13" class="edge">
<title>140106808453968&#45;&gt;140106808454096*</title>
<path fill="none" stroke="black" d="M197.91,-157.5C207.65,-157.5 217.05,-157.5 225.52,-157.5"/>
<polygon fill="black" stroke="black" points="225.7,-161 235.7,-157.5 225.7,-154 225.7,-161"/>
</g>
<!-- 140106808446416 -->
<g id="node25" class="node">
<title>140106808446416</title>
<polygon fill="none" stroke="black" points="326,-84.5 326,-120.5 546,-120.5 546,-84.5 326,-84.5"/>
<text text-anchor="middle" x="352.5" y="-98.8" font-family="Times,serif" font-size="14.00">x1*w1</text>
<polyline fill="none" stroke="black" points="379,-84.5 379,-120.5 "/>
<text text-anchor="middle" x="421.5" y="-98.8" font-family="Times,serif" font-size="14.00">data &#45;6.0000</text>
<polyline fill="none" stroke="black" points="464,-84.5 464,-120.5 "/>
<text text-anchor="middle" x="505" y="-98.8" font-family="Times,serif" font-size="14.00">grad 0.5000</text>
</g>
<!-- 140106808446416&#45;&gt;140106808454160+ -->
<g id="edge26" class="edge">
<title>140106808446416&#45;&gt;140106808454160+</title>
<path fill="none" stroke="black" d="M546.27,-119.75C555.64,-121.23 564.6,-122.65 572.65,-123.92"/>
<polygon fill="black" stroke="black" points="572.23,-127.4 582.65,-125.5 573.32,-120.48 572.23,-127.4"/>
</g>
<!-- 140106808446416*&#45;&gt;140106808446416 -->
<g id="edge10" class="edge">
<title>140106808446416*&#45;&gt;140106808446416</title>
<path fill="none" stroke="black" d="M290.34,-102.5C297.77,-102.5 306.37,-102.5 315.6,-102.5"/>
<polygon fill="black" stroke="black" points="315.84,-106 325.84,-102.5 315.84,-99 315.84,-106"/>
</g>
<!-- 140106808454032 -->
<g id="node27" class="node">
<title>140106808454032</title>
<polygon fill="none" stroke="black" points="716,-56.5 716,-92.5 901,-92.5 901,-56.5 716,-56.5"/>
<text text-anchor="middle" x="727.5" y="-70.8" font-family="Times,serif" font-size="14.00">b</text>
<polyline fill="none" stroke="black" points="739,-56.5 739,-92.5 "/>
<text text-anchor="middle" x="779" y="-70.8" font-family="Times,serif" font-size="14.00">data 6.8814</text>
<polyline fill="none" stroke="black" points="819,-56.5 819,-92.5 "/>
<text text-anchor="middle" x="860" y="-70.8" font-family="Times,serif" font-size="14.00">grad 0.5000</text>
</g>
<!-- 140106808454032&#45;&gt;140106808454224+ -->
<g id="edge23" class="edge">
<title>140106808454032&#45;&gt;140106808454224+</title>
<path fill="none" stroke="black" d="M901.02,-87.01C926,-90.43 951.59,-93.93 971.37,-96.63"/>
<polygon fill="black" stroke="black" points="971.05,-100.12 981.43,-98.01 972,-93.18 971.05,-100.12"/>
</g>
<!-- 140106808454608 -->
<g id="node28" class="node">
<title>140106808454608</title>
<polygon fill="none" stroke="black" points="1690,-0.5 1690,-36.5 1877,-36.5 1877,-0.5 1690,-0.5"/>
<text text-anchor="middle" x="1700" y="-14.8" font-family="Times,serif" font-size="14.00"> </text>
<polyline fill="none" stroke="black" points="1710,-0.5 1710,-36.5 "/>
<text text-anchor="middle" x="1752.5" y="-14.8" font-family="Times,serif" font-size="14.00">data &#45;1.0000</text>
<polyline fill="none" stroke="black" points="1795,-0.5 1795,-36.5 "/>
<text text-anchor="middle" x="1836" y="-14.8" font-family="Times,serif" font-size="14.00">grad 0.1464</text>
</g>
<!-- 140106808454608&#45;&gt;140106808454672+ -->
<g id="edge24" class="edge">
<title>140106808454608&#45;&gt;140106808454672+</title>
<path fill="none" stroke="black" d="M1877.05,-34.67C1886.34,-36.3 1895.33,-37.87 1903.44,-39.29"/>
<polygon fill="black" stroke="black" points="1903.1,-42.78 1913.55,-41.05 1904.3,-35.88 1903.1,-42.78"/>
</g>
</g>
</svg>