<?xml version="1.0" encoding="UTF-8" standalone="no"?>
<!DOCTYPE svg PUBLIC "-//W3C//DTD SVG 1.1//EN"
 "http://www.w3.org/Graphics/SVG/1.1/DTD/svg11.dtd">
<!-- Generated by graphviz version 2.43.0 (0)
 -->
<!-- Title: %3 Pages: 1 -->
<svg width="1575pt" height="210pt"
 viewBox="0.00 0.00 1575.00 210.00" xmlns="http://www.w3.org/2000/svg" xmlns:xlink="http://www.w3.org/1999/xlink">
<g id="graph0" class="graph" transform="scale(1 1) rotate(0) translate(4 206)">
<title>%3</title>
<polygon fill="white" stroke="transparent" points="-4,4 -4,-206 1571,-206 1571,4 -4,4"/>
<!-- 140106809462288 -->
<g id="node1" class="node">
<title>140106809462288</title>
<polygon fill="none" stroke="black" points="0,-165.5 0,-201.5 200,-201.5 200,-165.5 0,-165.5"/>
<text text-anchor="middle" x="16.5" y="-179.8" font-family="Times,serif" font-size="14.00">w1</text>
<polyline fill="none" stroke="black" points="33,-165.5 33,-201.5 "/>
<text text-anchor="middle" x="75.5" y="-179.8" font-family="Times,serif" font-size="14.00">data &#45;3.0000</text>
<polyline fill="none" stroke="black" points="118,-165.5 118,-201.5 "/>
<text text-anchor="middle" x="159" y="-179.8" font-family="Times,serif" font-size="14.00">grad 1.0000</text>
</g>
<!-- 140106808393424* -->
<g id="node9" class="node">
<title>140106808393424*</title>
<ellipse fill="none" stroke="black" cx="263" cy="-128.5" rx="27" ry="18"/>
<text text-anchor="middle" x="263" y="-124.8" font-family="Times,serif" font-size="14.00">*</text>
</g>
<!-- 140106809462288&#45;&gt;140106808393424* -->
<g id="edge10" class="edge">
<title>140106809462288&#45;&gt;140106808393424*</title>
<path fill="none" stroke="black" d="M172.53,-165.44C181.84,-162.67 191.2,-159.67 200,-156.5 210.53,-152.71 221.75,-147.9 231.72,-143.33"/>
<polygon fill="black" stroke="black" points="233.25,-146.48 240.82,-139.07 230.28,-140.14 233.25,-146.48"/>
</g>
<!-- 140106809189968 -->
<g id="node2" class="node">
<title>140106809189968</title>
<polygon fill="none" stroke="black" points="2,-110.5 2,-146.5 198,-146.5 198,-110.5 2,-110.5"/>
<text text-anchor="middle" x="17" y="-124.8" font-family="Times,serif" font-size="14.00">x1</text>
<polyline fill="none" stroke="black" points="32,-110.5 32,-146.5 "/>
<text text-anchor="middle" x="72" y="-124.8" font-family="Times,serif" font-size="14.00">data 2.0000</text>
<polyline fill="none" stroke="black" points="112,-110.5 112,-146.5 "/>
<text text-anchor="middle" x="155" y="-124.8" font-family="Times,serif" font-size="14.00">grad &#45;1.5000</text>
</g>
<!-- 140106809189968&#45;&gt;140106808393424* -->
<g id="edge12" class="edge">
<title>140106809189968&#45;&gt;140106808393424*</title>
<path fill="none" stroke="black" d="M198.37,-128.5C208.05,-128.5 217.4,-128.5 225.8,-128.5"/>
<polygon fill="black" stroke="black" points="225.91,-132 235.91,-128.5 225.91,-125 225.91,-132"/>
</g>
<!-- 140106808383632 -->
<g id="node3" class="node">
<title>140106808383632</title>
<polygon fill="none" stroke="black" points="1382,-54.5 1382,-90.5 1567,-90.5 1567,-54.5 1382,-54.5"/>
<text text-anchor="middle" x="1393.5" y="-68.8" font-family="Times,serif" font-size="14.00">o</text>
<polyline fill="none" stroke="black" points="1405,-54.5 1405,-90.5 "/>
<text text-anchor="middle" x="1445" y="-68.8" font-family="Times,serif" font-size="14.00">data 0.7071</text>
<polyline fill="none" stroke="black" points="1485,-54.5 1485,-90.5 "/>
<text text-anchor="middle" x="1526" y="-68.8" font-family="Times,serif" font-size="14.00">grad 1.0000</text>
</g>
<!-- 140106808383632tanh -->
<g id="node4" class="node">
<title>140106808383632tanh</title>
<ellipse fill="none" stroke="black" cx="1319" cy="-72.5" rx="27" ry="18"/>
<text text-anchor="middle" x="1319" y="-68.8" font-family="Times,serif" font-size="14.00">tanh</text>
</g>
<!-- 140106808383632tanh&#45;&gt;140106808383632 -->
<g id="edge1" class="edge">
<title>140106808383632tanh&#45;&gt;140106808383632</title>
<path fill="none" stroke="black" d="M1346.04,-72.5C1353.58,-72.5 1362.3,-72.5 1371.57,-72.5"/>
<polygon fill="black" stroke="black" points="1371.81,-76 1381.81,-72.5 1371.81,-69 1371.81,-76"/>
</g>
<!-- 140106808378000 -->
<g id="node5" class="node">
<title>140106808378000</title>
<polygon fill="none" stroke="black" points="672,-82.5 672,-118.5 945,-118.5 945,-82.5 672,-82.5"/>
<text text-anchor="middle" x="725" y="-96.8" font-family="Times,serif" font-size="14.00">x1*w1 + x2*w2</text>
<polyline fill="none" stroke="black" points="778,-82.5 778,-118.5 "/>
<text text-anchor="middle" x="820.5" y="-96.8" font-family="Times,serif" font-size="14.00">data &#45;6.0000</text>
<polyline fill="none" stroke="black" points="863,-82.5 863,-118.5 "/>
<text text-anchor="middle" x="904" y="-96.8" font-family="Times,serif" font-size="14.00">grad 0.5000</text>
</g>
<!-- 140106808392080+ -->
<g id="node12" class="node">
<title>140106808392080+</title>
<ellipse fill="none" stroke="black" cx="1008" cy="-72.5" rx="27" ry="18"/>
<text text-anchor="middle" x="1008" y="-68.8" font-family="Times,serif" font-size="14.00">+</text>
</g>
<!-- 140106808378000&#45;&gt;140106808392080+ -->
<g id="edge9" class="edge">
<title>140106808378000&#45;&gt;140106808392080+</title>
<path fill="none" stroke="black" d="M936.53,-82.49C949.09,-80.71 960.99,-79.02 971.3,-77.56"/>
<polygon fill="black" stroke="black" points="972.03,-80.99 981.44,-76.12 971.05,-74.06 972.03,-80.99"/>
</g>
<!-- 140106808378000+ -->
<g id="node6" class="node">
<title>140106808378000+</title>
<ellipse fill="none" stroke="black" cx="609" cy="-100.5" rx="27" ry="18"/>
<text text-anchor="middle" x="609" y="-96.8" font-family="Times,serif" font-size="14.00">+</text>
</g>
<!-- 140106808378000+&#45;&gt;140106808378000 -->
<g id="edge2" class="edge">
<title>140106808378000+&#45;&gt;140106808378000</title>
<path fill="none" stroke="black" d="M636.23,-100.5C643.7,-100.5 652.41,-100.5 661.87,-100.5"/>
<polygon fill="black" stroke="black" points="661.98,-104 671.98,-100.5 661.98,-97 661.98,-104"/>
</g>
<!-- 140106809049744 -->
<g id="node7" class="node">
<title>140106809049744</title>
<polygon fill="none" stroke="black" points="716,-27.5 716,-63.5 901,-63.5 901,-27.5 716,-27.5"/>
<text text-anchor="middle" x="727.5" y="-41.8" font-family="Times,serif" font-size="14.00">b</text>
<polyline fill="none" stroke="black" points="739,-27.5 739,-63.5 "/>
<text text-anchor="middle" x="779" y="-41.8" font-family="Times,serif" font-size="14.00">data 6.8814</text>
<polyline fill="none" stroke="black" points="819,-27.5 819,-63.5 "/>
<text text-anchor="middle" x="860" y="-41.8" font-family="Times,serif" font-size="14.00">grad 0.5000</text>
</g>
<!-- 140106809049744&#45;&gt;140106808392080+ -->
<g id="edge14" class="edge">
<title>140106809049744&#45;&gt;140106808392080+</title>
<path fill="none" stroke="black" d="M901.02,-58.01C926,-61.43 951.59,-64.93 971.37,-67.63"/>
<polygon fill="black" stroke="black" points="971.05,-71.12 981.43,-69.01 972,-64.18 971.05,-71.12"/>
</g>
<!-- 140106808393424 -->
<g id="node8" class="node">
<title>140106808393424</title>
<polygon fill="none" stroke="black" points="326,-110.5 326,-146.5 546,-146.5 546,-110.5 326,-110.5"/>
<text text-anchor="middle" x="352.5" y="-124.8" font-family="Times,serif" font-size="14.00">x1*w1</text>
<polyline fill="none" stroke="black" points="379,-110.5 379,-146.5 "/>
<text text-anchor="middle" x="421.5" y="-124.8" font-family="Times,serif" font-size="14.00">data &#45;6.0000</text>
<polyline fill="none" stroke="black" points="464,-110.5 464,-146.5 "/>
<text text-anchor="middle" x="505" y="-124.8" font-family="Times,serif" font-size="14.00">grad 0.5000</text>
</g>
<!-- 140106808393424&#45;&gt;140106808378000+ -->
<g id="edge7" class="edge">
<title>140106808393424&#45;&gt;140106808378000+</title>
<path fill="none" stroke="black" d="M546.27,-110.61C555.64,-109.07 564.6,-107.61 572.65,-106.29"/>
<polygon fill="black" stroke="black" points="573.35,-109.72 582.65,-104.65 572.22,-102.81 573.35,-109.72"/>
</g>
<!-- 140106808393424*&#45;&gt;140106808393424 -->
<g id="edge3" class="edge">
<title>140106808393424*&#45;&gt;140106808393424</title>
<path fill="none" stroke="black" d="M290.34,-128.5C297.77,-128.5 306.37,-128.5 315.6,-128.5"/>
<polygon fill="black" stroke="black" points="315.84,-132 325.84,-128.5 315.84,-125 315.84,-132"/>
</g>
<!-- 140106809058192 -->
<g id="node10" class="node">
<title>140106809058192</title>
<polygon fill="none" stroke="black" points="2.5,-55.5 2.5,-91.5 197.5,-91.5 197.5,-55.5 2.5,-55.5"/>
<text text-anchor="middle" x="19" y="-69.8" font-family="Times,serif" font-size="14.00">w2</text>
<polyline fill="none" stroke="black" points="35.5,-55.5 35.5,-91.5 "/>
<text text-anchor="middle" x="75.5" y="-69.8" font-family="Times,serif" font-size="14.00">data 1.0000</text>
<polyline fill="none" stroke="black" points="115.5,-55.5 115.5,-91.5 "/>
<text text-anchor="middle" x="156.5" y="-69.8" font-family="Times,serif" font-size="14.00">grad 0.0000</text>
</g>
<!-- 140106808392592* -->
<g id="node14" class="node">
<title>140106808392592*</title>
<ellipse fill="none" stroke="black" cx="263" cy="-73.5" rx="27" ry="18"/>
<text text-anchor="middle" x="263" y="-69.8" font-family="Times,serif" font-size="14.00">*</text>
</g>
<!-- 140106809058192&#45;&gt;140106808392592* -->
<g id="edge8" class="edge">
<title>140106809058192&#45;&gt;140106808392592*</title>
<path fill="none" stroke="black" d="M197.91,-73.5C207.65,-73.5 217.05,-73.5 225.52,-73.5"/>
<polygon fill="black" stroke="black" points="225.7,-77 235.7,-73.5 225.7,-70 225.7,-77"/>
</g>
<!-- 140106808392080 -->
<g id="node11" class="node">
<title>140106808392080</title>
<polygon fill="none" stroke="black" points="1071,-54.5 1071,-90.5 1256,-90.5 1256,-54.5 1071,-54.5"/>
<text text-anchor="middle" x="1082.5" y="-68.8" font-family="Times,serif" font-size="14.00">n</text>
<polyline fill="none" stroke="black" points="1094,-54.5 1094,-90.5 "/>
<text text-anchor="middle" x="1134" y="-68.8" font-family="Times,serif" font-size="14.00">data 0.8814</text>
<polyline fill="none" stroke="black" points="1174,-54.5 1174,-90.5 "/>
<text text-anchor="middle" x="1215" y="-68.8" font-family="Times,serif" font-size="14.00">grad 0.5000</text>
</g>
<!-- 140106808392080&#45;&gt;140106808383632tanh -->
<g id="edge11" class="edge">
<title>140106808392080&#45;&gt;140106808383632tanh</title>
<path fill="none" stroke="black" d="M1256.01,-72.5C1265.01,-72.5 1273.74,-72.5 1281.66,-72.5"/>
<polygon fill="black" stroke="black" points="1281.91,-76 1291.91,-72.5 1281.91,-69 1281.91,-76"/>
</g>
<!-- 140106808392080+&#45;&gt;140106808392080 -->
<g id="edge4" class="edge">
<title>140106808392080+&#45;&gt;140106808392080</title>
<path fill="none" stroke="black" d="M1035.04,-72.5C1042.58,-72.5 1051.3,-72.5 1060.57,-72.5"/>
<polygon fill="black" stroke="black" points="1060.81,-76 1070.81,-72.5 1060.81,-69 1060.81,-76"/>
</g>
<!-- 140106808392592 -->
<g id="node13" class="node">
<title>140106808392592</title>
<polygon fill="none" stroke="black" points="328.5,-55.5 328.5,-91.5 543.5,-91.5 543.5,-55.5 328.5,-55.5"/>
<text text-anchor="middle" x="355" y="-69.8" font-family="Times,serif" font-size="14.00">x2*w2</text>
<polyline fill="none" stroke="black" points="381.5,-55.5 381.5,-91.5 "/>
<text text-anchor="middle" x="421.5" y="-69.8" font-family="Times,serif" font-size="14.00">data 0.0000</text>
<polyline fill="none" stroke="black" points="461.5,-55.5 461.5,-91.5 "/>
<text text-anchor="middle" x="502.5" y="-69.8" font-family="Times,serif" font-size="14.00">grad 0.5000</text>
</g>
<!-- 140106808392592&#45;&gt;140106808378000+ -->
<g id="edge6" class="edge">
<title>140106808392592&#45;&gt;140106808378000+</title>
<path fill="none" stroke="black" d="M543.84,-90.37C554.01,-91.98 563.76,-93.51 572.44,-94.89"/>
<polygon fill="black" stroke="black" points="572.05,-98.37 582.47,-96.47 573.14,-91.45 572.05,-98.37"/>
</g>
<!-- 140106808392592*&#45;&gt;140106808392592 -->
<g id="edge5" class="edge">
<title>140106808392592*&#45;&gt;140106808392592</title>
<path fill="none" stroke="black" d="M290.34,-73.5C298.51,-73.5 308.08,-73.5 318.36,-73.5"/>
<polygon fill="black" stroke="black" points="318.39,-77 328.39,-73.5 318.39,-70 318.39,-77"/>
</g>
<!-- 140106809469392 -->
<g id="node15" class="node">
<title>140106809469392</title>
<polygon fill="none" stroke="black" points="4,-0.5 4,-36.5 196,-36.5 196,-0.5 4,-0.5"/>
<text text-anchor="middle" x="19" y="-14.8" font-family="Times,serif" font-size="14.00">x2</text>
<polyline fill="none" stroke="black" points="34,-0.5 34,-36.5 "/>
<text text-anchor="middle" x="74" y="-14.8" font-family="Times,serif" font-size="14.00">data 0.0000</text>
<polyline fill="none" stroke="black" points="114,-0.5 114,-36.5 "/>
<text text-anchor="middle" x="155" y="-14.8" font-family="Times,serif" font-size="14.00">grad 0.5000</text>
</g>
<!-- 140106809469392&#45;&gt;140106808392592* -->
<g id="edge13" class="edge">
<title>140106809469392&#45;&gt;140106808392592*</title>
<path fill="none" stroke="black" d="M169.28,-36.5C179.65,-39.61 190.16,-42.98 200,-46.5 210.28,-50.17 221.28,-54.74 231.11,-59.07"/>
<polygon fill="black" stroke="black" points="229.93,-62.37 240.48,-63.27 232.79,-55.99 229.93,-62.37"/>
</g>
</g>
</svg>